<svg version="1.1" id="Layer_1" xmlns="http://www.w3.org/2000/svg" xmlns:xlink="http://www.w3.org/1999/xlink" x="0px" y="0px"
	 width="100%" viewBox="0 0 433 317" enable-background="new 0 0 433 317" xml:space="preserve">
<path fill="#0F0B0B" opacity="1.000000" stroke="none" 
	d="
M140.836884,34.122997 
	C147.540680,38.812733 153.215378,37.219688 159.957062,34.007805 
	C174.188217,27.227768 188.931198,26.114235 203.194595,34.765812 
	C203.737045,35.094837 204.384445,35.250843 204.123932,35.147842 
	C207.924393,28.670879 211.249603,22.286734 215.259689,16.366480 
	C219.469208,10.151793 227.184280,7.248328 233.123215,8.815717 
	C238.341156,10.192818 242.121582,17.157633 246.285202,21.876656 
	C246.452759,22.066553 244.280426,25.289211 242.769012,25.781866 
	C239.994476,26.686258 236.890610,26.543423 233.940598,26.955688 
	C230.226181,27.474783 226.570206,29.125404 226.622742,33.078918 
	C226.668762,36.542500 228.609726,40.024357 230.037796,43.359333 
	C230.181671,43.695320 232.801437,43.469429 233.874115,42.833164 
	C246.165390,35.542454 258.894531,36.141174 271.697998,40.881241 
	C274.659851,41.977776 277.096436,44.493168 279.817810,46.385639 
	C289.334778,39.263641 300.239838,38.701817 311.680939,39.644958 
	C319.895844,40.322155 327.340027,42.409657 331.594879,49.737446 
	C334.589691,54.895222 335.460907,61.270096 338.361969,66.501701 
	C343.631439,76.004265 342.553711,86.384834 343.452209,97.241768 
	C350.539215,92.197968 356.937195,87.356537 363.628906,82.962456 
	C370.418701,78.503960 377.170563,73.759193 384.527100,70.445152 
	C395.957092,65.296066 409.722290,73.143112 412.022247,85.573448 
	C415.774994,105.855347 408.604340,122.059250 392.887146,134.813538 
	C388.624756,138.272430 384.206848,141.555374 379.716400,144.714432 
	C368.846741,152.361328 356.569641,154.815659 343.099335,154.673386 
	C342.790588,185.809525 339.488220,216.880249 322.858368,246.018631 
	C325.813904,245.708908 327.750397,245.784485 329.517578,245.273956 
	C338.507019,242.677078 346.825287,244.527039 354.005188,249.956436 
	C361.680450,255.760391 365.423828,267.205902 361.605865,277.270477 
	C354.861328,295.049866 337.337341,301.562714 318.753784,299.864288 
	C305.798187,298.680206 294.120819,294.202148 284.619904,285.068787 
	C277.172882,277.909882 273.836182,268.893097 273.790009,258.379395 
	C263.511719,255.640976 253.452530,252.480286 245.767334,244.487137 
	C243.991196,242.639832 241.956055,242.768066 239.282364,244.010498 
	C230.605957,248.042358 221.909943,252.472855 212.730453,254.867676 
	C201.712402,257.742126 190.383591,256.447510 179.494232,252.558502 
	C172.955200,250.223129 165.966888,248.762772 162.869324,243.195847 
	C153.678329,246.040329 145.165741,248.674866 136.775162,251.271637 
	C139.105499,256.393555 142.553207,262.565430 144.769669,269.151642 
	C148.722580,280.897644 149.441162,292.896362 141.182755,303.183014 
	C138.305130,306.767395 133.426620,309.713745 128.928635,310.861237 
	C109.445877,315.831726 95.500107,304.839966 86.516029,287.457001 
	C80.276794,275.384949 77.727684,262.408813 78.836212,248.762650 
	C79.383591,242.024170 83.735275,235.482925 89.652481,232.123779 
	C86.113747,218.779358 82.069298,205.852707 79.385559,192.649475 
	C77.350647,182.638351 76.946693,172.283798 76.054504,162.061340 
	C75.850281,159.721390 75.701553,158.150589 73.099609,157.167969 
	C68.639015,155.483475 64.310547,153.401459 60.051170,151.240784 
	C47.469761,144.858505 37.455246,136.034531 30.813078,123.151070 
	C26.269560,114.338242 22.097637,105.743492 21.341116,95.665253 
	C20.451204,83.810020 25.811201,72.891777 40.274109,72.851646 
	C50.387535,72.823586 67.286972,81.163963 77.857430,89.868454 
	C79.738045,83.357224 81.691475,76.810387 83.517265,70.228142 
	C87.527191,55.771790 96.363800,45.296516 108.608337,36.695164 
	C119.164467,29.279854 129.610855,31.832211 140.836884,34.122997 
M230.884460,14.863426 
	C225.830475,13.238774 215.608429,18.029423 214.362564,22.687698 
	C213.839355,24.643959 213.842896,26.765045 213.160080,28.649252 
	C212.043030,31.731670 210.423050,34.630470 209.278488,37.704739 
	C208.459610,39.904175 213.942001,51.039570 216.041794,51.853775 
	C216.491058,52.027981 217.017975,52.050388 217.510315,52.057209 
	C221.185333,52.108162 225.117752,46.778316 224.119522,43.221096 
	C223.418945,40.724518 221.728470,37.756973 222.480560,35.749046 
	C224.353699,30.748068 227.369797,26.175182 230.739960,21.073402 
	C233.077438,21.073402 235.414917,21.073402 237.752396,21.073402 
	C237.874878,20.519682 237.997360,19.965961 238.119858,19.412243 
	C235.790482,18.124886 233.461121,16.837530 230.884460,14.863426 
M149.281052,59.000519 
	C148.892639,58.993729 148.504227,58.986942 147.990753,58.060009 
	C148.892838,49.295258 148.643280,41.211369 137.440033,39.161037 
	C130.338547,37.861382 122.771072,35.122784 116.164238,38.610771 
	C103.762604,45.158031 94.111504,54.962482 89.816139,68.691544 
	C87.342140,76.599052 86.195328,84.925629 84.529083,93.079506 
	C84.074905,95.302048 83.903236,97.582336 83.611046,99.767838 
	C78.667534,100.087120 76.467491,97.131271 73.261406,94.162598 
	C62.988766,84.650681 50.893635,78.061485 36.129669,79.097137 
	C32.130814,79.377640 29.209991,81.398369 28.079821,85.804947 
	C25.955593,94.087418 27.051052,102.120712 30.277143,109.675369 
	C35.936390,122.927788 43.147209,135.333405 56.079704,142.867722 
	C62.568542,146.648056 68.982880,151.580978 77.551430,149.288910 
	C78.611229,149.005417 80.556023,150.729553 81.589355,151.948425 
	C83.198257,153.846176 84.604721,156.000488 85.670990,158.248154 
	C86.630737,160.271271 87.017639,162.566116 87.657204,164.741104 
	C85.844551,164.985123 84.031906,165.229126 81.775635,165.532837 
	C82.946030,174.688782 83.954369,184.554688 85.543037,194.326248 
	C86.645760,201.108810 88.427277,207.791885 90.118210,214.465515 
	C93.037933,225.988815 98.957375,235.512604 110.358696,240.051544 
	C115.998672,242.296844 122.322716,242.835907 128.346710,244.101944 
	C139.940872,246.538605 150.493515,244.510269 160.366776,236.884109 
	C161.002609,236.247375 161.638458,235.610641 161.952194,234.676147 
	C161.952194,234.676147 161.734528,234.295319 162.030579,233.750412 
	C162.351440,233.502274 162.672302,233.254135 163.460114,233.506714 
	C166.510544,237.014450 168.950439,241.544113 172.742874,243.809845 
	C179.879944,248.073700 187.979218,249.957245 196.438339,250.909576 
	C206.988113,252.097290 216.464294,249.343155 225.756241,245.256607 
	C231.282944,242.825974 236.516739,239.729340 242.594055,236.998627 
	C244.268188,237.666946 245.942337,238.335251 248.181732,239.419983 
	C255.061981,246.558563 263.834930,250.205597 273.119629,252.879257 
	C274.044373,253.145523 275.415924,253.510422 275.997620,253.066437 
	C282.981720,247.735703 290.177185,250.639816 297.286530,252.435669 
	C305.368469,254.477188 312.126038,252.715210 316.975281,245.746048 
	C319.014191,242.815811 320.408203,239.441605 322.153137,236.301285 
	C330.398529,221.462311 333.040131,204.864868 336.144501,188.603790 
	C338.206116,177.804977 337.687103,166.507050 338.227417,155.427856 
	C338.410889,151.665436 342.498016,146.977615 345.638733,148.332962 
	C349.610291,150.046860 352.936401,148.856705 356.315704,147.946823 
	C362.085907,146.393234 368.110352,144.954315 373.243896,142.071106 
	C379.999512,138.276886 386.397491,133.589737 392.236542,128.473175 
	C404.266235,117.931931 410.100647,104.630157 407.374573,88.421349 
	C405.643951,78.131310 393.456909,71.417595 385.416779,76.240555 
	C377.650604,80.899155 370.021637,85.798485 362.473602,90.804977 
	C356.360229,94.859879 350.650665,99.558876 344.355560,103.285675 
	C342.117798,104.610481 338.626038,104.322319 335.824066,103.930748 
	C334.760803,103.782158 334.027771,101.270714 332.958008,99.533890 
	C335.489410,98.949387 336.844971,98.636383 339.118561,98.111412 
	C337.803802,90.540443 336.921204,83.185081 335.168091,76.043404 
	C333.616669,69.723495 331.079376,63.647099 329.008514,57.452770 
	C327.059204,51.622002 323.583191,47.541714 317.081177,46.836437 
	C314.321503,46.537094 311.545258,46.331089 308.809265,45.883099 
	C299.021942,44.280537 289.904114,45.444401 282.334961,52.467373 
	C280.026550,54.609230 278.243988,54.971668 276.117493,52.414925 
	C269.728729,44.733440 260.377380,41.992878 251.728790,43.459858 
	C238.048645,45.780289 224.271545,49.925270 216.962601,63.234470 
	C215.468536,59.886967 214.168900,56.053059 212.157379,52.638535 
	C205.734512,41.735844 196.448273,35.301571 183.455154,34.441959 
	C173.043060,33.753109 164.202698,38.275967 155.373291,42.507835 
	C152.109009,44.072380 148.693848,46.932301 149.879456,52.007118 
	C150.393921,54.209129 149.899643,56.646801 149.281052,59.000519 
M85.752861,244.694412 
	C85.327950,246.295135 84.607193,247.880905 84.525345,249.498993 
	C83.920525,261.456024 85.469322,273.026855 90.978447,283.857880 
	C97.793152,297.255737 109.224472,309.311188 125.497696,306.579834 
	C136.254547,304.774445 140.480194,298.635590 141.668091,290.416565 
	C143.598785,277.058319 139.336487,264.848389 131.113190,254.193344 
	C128.481796,250.783798 125.069412,248.751389 120.235023,248.686600 
	C112.056976,248.576996 104.788261,245.411865 98.717949,239.825455 
	C94.710083,236.137085 92.090118,235.830399 88.450195,239.350876 
	C87.248009,240.513626 86.796700,242.452728 85.752861,244.694412 
M357.385162,265.293610 
	C354.921631,261.527802 353.177643,256.847778 349.826233,254.210052 
	C344.776184,250.235458 338.430267,249.204590 331.766327,250.576782 
	C327.872253,251.378616 323.768768,251.163391 319.025024,251.450150 
	C314.157959,257.845093 306.577209,258.930420 298.238861,257.658600 
	C293.375214,256.916779 288.539459,255.810959 283.652954,255.527512 
	C282.428894,255.456528 280.050690,257.833099 279.920868,259.242981 
	C279.198822,267.084686 281.870758,274.271820 287.281311,279.654968 
	C302.014954,294.314087 319.916382,298.402039 339.556976,292.264160 
	C350.953278,288.702698 359.069550,278.198608 357.385162,265.293610 
z"/>
<path fill="#FC7729" opacity="1.000000" stroke="none" 
	d="
M241.882233,236.932144 
	C236.516739,239.729340 231.282944,242.825974 225.756241,245.256607 
	C216.464294,249.343155 206.988113,252.097290 196.438339,250.909576 
	C187.979218,249.957245 179.879944,248.073700 172.742874,243.809845 
	C168.950439,241.544113 166.510544,237.014450 163.156097,232.905396 
	C161.243561,229.025970 159.635025,225.747879 158.026505,222.469788 
	C157.538025,222.682877 157.049561,222.895981 156.561096,223.109085 
	C156.986160,227.320923 158.645294,231.073959 161.734528,234.295319 
	C161.734528,234.295319 161.952194,234.676147 161.970215,235.121613 
	C161.216446,235.944611 160.444687,236.322128 159.672928,236.699646 
	C150.493515,244.510269 139.940872,246.538605 128.346710,244.101944 
	C122.322716,242.835907 115.998672,242.296844 110.358696,240.051544 
	C98.957375,235.512604 93.037933,225.988815 90.118210,214.465515 
	C88.427277,207.791885 86.645760,201.108810 85.543037,194.326248 
	C83.954369,184.554688 82.946030,174.688782 81.775635,165.532837 
	C84.031906,165.229126 85.844551,164.985123 87.657204,164.741119 
	C87.017639,162.566116 86.630737,160.271271 85.670990,158.248154 
	C84.604721,156.000488 83.198257,153.846176 81.589355,151.948425 
	C80.556023,150.729553 78.611229,149.005417 77.551430,149.288910 
	C68.982880,151.580978 62.568542,146.648056 56.079704,142.867722 
	C43.147209,135.333405 35.936390,122.927788 30.277143,109.675369 
	C27.051052,102.120712 25.955593,94.087418 28.079821,85.804947 
	C29.209991,81.398369 32.130814,79.377640 36.129669,79.097137 
	C50.893635,78.061485 62.988766,84.650681 73.261406,94.162598 
	C76.467491,97.131271 78.667534,100.087120 83.611046,99.767838 
	C83.903236,97.582336 84.074905,95.302048 84.529083,93.079506 
	C86.195328,84.925629 87.342140,76.599052 89.816139,68.691544 
	C94.111504,54.962482 103.762604,45.158031 116.164238,38.610771 
	C122.771072,35.122784 130.338547,37.861382 137.440033,39.161037 
	C148.643280,41.211369 148.892838,49.295258 147.989822,58.963966 
	C148.894104,67.180603 149.799332,74.493279 150.704544,81.805954 
	C151.383881,81.713707 152.063217,81.621452 152.742554,81.529205 
	C151.782883,74.011948 150.823212,66.494690 149.863525,58.977436 
	C149.899643,56.646801 150.393921,54.209129 149.879456,52.007118 
	C148.693848,46.932301 152.109009,44.072380 155.373291,42.507835 
	C164.202698,38.275967 173.043060,33.753109 183.455154,34.441959 
	C196.448273,35.301571 205.734512,41.735844 212.157379,52.638535 
	C214.168900,56.053059 215.468536,59.886967 216.962601,63.234470 
	C224.271545,49.925270 238.048645,45.780289 251.728790,43.459858 
	C260.377380,41.992878 269.728729,44.733440 276.117493,52.414925 
	C278.243988,54.971668 280.026550,54.609230 282.334961,52.467373 
	C289.904114,45.444401 299.021942,44.280537 308.809265,45.883099 
	C311.545258,46.331089 314.321503,46.537094 317.081177,46.836437 
	C323.583191,47.541714 327.059204,51.622002 329.008514,57.452770 
	C331.079376,63.647099 333.616669,69.723495 335.168091,76.043404 
	C336.921204,83.185081 337.803802,90.540443 339.118561,98.111412 
	C336.844971,98.636383 335.489410,98.949387 332.958008,99.533890 
	C334.027771,101.270714 334.760803,103.782158 335.824066,103.930748 
	C338.626038,104.322319 342.117798,104.610481 344.355560,103.285675 
	C350.650665,99.558876 356.360229,94.859879 362.473602,90.804977 
	C370.021637,85.798485 377.650604,80.899155 385.416779,76.240555 
	C393.456909,71.417595 405.643951,78.131310 407.374573,88.421349 
	C410.100647,104.630157 404.266235,117.931931 392.236542,128.473175 
	C386.397491,133.589737 379.999512,138.276886 373.243896,142.071106 
	C368.110352,144.954315 362.085907,146.393234 356.315704,147.946823 
	C352.936401,148.856705 349.610291,150.046860 345.638733,148.332962 
	C342.498016,146.977615 338.410889,151.665436 338.227417,155.427856 
	C337.687103,166.507050 338.206116,177.804977 336.144501,188.603790 
	C333.040131,204.864868 330.398529,221.462311 322.153137,236.301285 
	C320.408203,239.441605 319.014191,242.815811 316.975281,245.746048 
	C312.126038,252.715210 305.368469,254.477188 297.286530,252.435669 
	C290.177185,250.639816 282.981720,247.735703 275.997620,253.066437 
	C275.415924,253.510422 274.044373,253.145523 273.119629,252.879257 
	C263.834930,250.205597 255.061981,246.558563 247.873337,238.827942 
	C251.638687,229.985855 255.837540,221.793976 259.715881,213.453049 
	C261.010773,210.668167 261.485962,207.502136 262.567505,204.220215 
	C264.700073,199.207947 265.810394,194.349106 266.595886,189.434082 
	C265.844666,189.267059 265.093445,189.100021 264.342194,188.932999 
	C263.237946,193.627274 262.133698,198.321548 260.849945,203.324188 
	C256.998810,212.420746 253.306793,221.200516 249.665298,230.001175 
	C248.178970,233.593292 246.006729,236.339218 241.882233,236.932144 
M155.683975,217.867462 
	C155.774506,215.560104 155.822372,213.250107 155.963821,210.945877 
	C156.340027,204.817780 156.756546,198.692139 157.162537,192.481430 
	C152.857986,195.022217 151.683731,209.875549 154.803848,218.169342 
	C154.856537,218.096649 154.909241,218.023941 155.683975,217.867462 
M253.095047,164.663223 
	C253.398849,164.775772 253.702637,164.888321 254.495880,165.003418 
	C254.495880,165.003418 254.985016,164.986221 255.269623,165.600067 
	C258.313690,168.978928 261.678070,167.730209 265.694275,165.934891 
	C271.823273,162.886856 270.349640,153.264679 268.125641,144.314255 
	C261.049866,157.664642 257.840729,157.271393 245.923172,152.917557 
	C247.583954,156.035095 249.244736,159.152618 251.048019,162.688141 
	C251.230774,162.950485 251.481934,163.086563 252.272202,163.348038 
	C252.486160,163.627701 252.700119,163.907379 253.095047,164.663223 
M193.986465,72.213058 
	C190.489578,74.523537 188.864029,77.978943 187.880676,81.904655 
	C185.490463,91.446709 186.672073,101.160751 188.851913,110.244827 
	C191.081512,119.536308 195.031387,128.834793 200.178238,136.883224 
	C204.912567,144.286591 211.509430,151.519089 222.162689,149.931778 
	C225.235275,149.473969 228.859146,148.371246 230.911774,146.273849 
	C235.933395,141.142654 237.650345,134.138916 237.293503,127.253807 
	C236.304138,108.163689 226.948120,92.777283 213.484985,80.063103 
	C208.569412,75.420967 202.792007,70.096024 193.986465,72.213058 
M258.427826,115.939018 
	C264.506897,125.051872 271.131134,133.605316 280.425323,139.824280 
	C283.775696,142.066101 286.723969,141.537201 289.749390,139.938095 
	C296.689606,136.269791 299.736053,129.922897 297.873505,122.157120 
	C296.187286,115.126633 294.620850,107.926331 291.736084,101.356598 
	C287.100739,90.800209 282.766632,80.052834 274.795044,71.166313 
	C269.155914,64.879936 262.553314,62.643826 254.645294,63.086956 
	C250.073242,63.343155 245.828659,70.112572 246.132706,75.476074 
	C246.940384,89.724396 252.442703,102.541092 258.427826,115.939018 
M313.676178,144.798660 
	C310.090698,150.470490 302.696564,153.597168 301.705902,161.828979 
	C303.435974,161.828979 304.825043,162.235138 305.251251,161.766174 
	C309.543152,157.043686 314.085114,152.457901 317.676697,147.229172 
	C319.370636,144.763123 317.083649,143.428055 313.676178,144.798660 
M165.694870,169.179520 
	C168.087631,167.200348 170.697723,165.418365 172.762985,163.142059 
	C173.556168,162.267822 173.107330,160.266724 173.224442,158.779068 
	C171.921555,158.880707 170.331055,158.541351 169.370468,159.167831 
	C166.645508,160.945007 163.922882,162.877548 161.713852,165.231705 
	C160.562164,166.459045 159.501709,169.252151 160.127121,170.382248 
	C161.829697,173.458710 163.556854,170.894547 165.694870,169.179520 
M187.080444,158.179184 
	C183.223099,154.395737 181.638199,159.100586 180.221436,160.682098 
	C178.485840,162.619568 178.177139,165.835297 177.251511,168.498352 
	C178.375458,168.872482 180.302536,169.815094 180.501282,169.534332 
	C182.955048,166.067810 185.156631,162.422791 187.080444,158.179184 
M326.551208,153.961884 
	C327.718964,151.984009 329.121521,150.098724 329.953613,147.988495 
	C330.359009,146.960480 329.699463,145.512558 329.521973,144.254700 
	C328.176636,144.534424 326.310638,144.361053 325.592285,145.186447 
	C324.005310,147.009933 322.800629,149.253159 321.846893,151.498032 
	C321.463531,152.400375 321.803772,154.428177 322.427612,154.747940 
	C323.354950,155.223236 324.826569,154.636719 326.551208,153.961884 
M303.113495,151.869293 
	C304.809113,150.337997 306.803650,149.012009 308.061737,147.180206 
	C308.609650,146.382446 307.646118,144.546616 307.369019,143.182251 
	C305.123077,144.444107 302.464569,145.307251 300.749481,147.082092 
	C299.097351,148.791794 299.409973,151.097458 303.113495,151.869293 
M153.475876,161.084991 
	C153.250778,161.526184 152.811874,161.981354 152.839615,162.406052 
	C152.932999,163.835724 153.192383,165.254547 153.388275,166.677521 
	C155.612091,165.282867 158.017288,164.093277 159.957092,162.377518 
	C160.598740,161.810013 160.223709,159.838806 159.904709,158.616058 
	C159.823761,158.305801 158.056015,158.090332 157.275757,158.388046 
	C156.081680,158.843628 155.072021,159.782578 153.475876,161.084991 
M282.622406,64.432495 
	C283.171844,65.153458 283.721252,65.874428 284.270691,66.595390 
	C284.682922,66.154213 285.485443,65.673431 285.445343,65.278168 
	C285.136902,62.239025 284.664917,59.216476 284.243713,56.188778 
	C283.638184,56.233471 283.032623,56.278160 282.427094,56.322849 
	C282.427094,58.769276 282.427094,61.215698 282.622406,64.432495 
z"/>
<path fill="#FB018E" opacity="1.000000" stroke="none" 
	d="
M85.877457,244.365631 
	C86.796700,242.452728 87.248009,240.513626 88.450195,239.350876 
	C92.090118,235.830399 94.710083,236.137085 98.717949,239.825455 
	C104.788261,245.411865 112.056976,248.576996 120.235023,248.686600 
	C125.069412,248.751389 128.481796,250.783798 131.113190,254.193344 
	C139.336487,264.848389 143.598785,277.058319 141.668091,290.416565 
	C140.480194,298.635590 136.254547,304.774445 125.497696,306.579834 
	C109.224472,309.311188 97.793152,297.255737 90.978447,283.857880 
	C85.469322,273.026855 83.920525,261.456024 84.525345,249.498993 
	C84.607193,247.880905 85.327950,246.295135 85.877457,244.365631 
z"/>
<path fill="#FC028E" opacity="1.000000" stroke="none" 
	d="
M357.574127,265.633087 
	C359.069550,278.198608 350.953278,288.702698 339.556976,292.264160 
	C319.916382,298.402039 302.014954,294.314087 287.281311,279.654968 
	C281.870758,274.271820 279.198822,267.084686 279.920868,259.242981 
	C280.050690,257.833099 282.428894,255.456528 283.652954,255.527512 
	C288.539459,255.810959 293.375214,256.916779 298.238861,257.658600 
	C306.577209,258.930420 314.157959,257.845093 319.025024,251.450150 
	C323.768768,251.163391 327.872253,251.378616 331.766327,250.576782 
	C338.430267,249.204590 344.776184,250.235458 349.826233,254.210052 
	C353.177643,256.847778 354.921631,261.527802 357.574127,265.633087 
z"/>
<path fill="#8E401A" opacity="1.000000" stroke="none" 
	d="
M229.927032,21.430431 
	C227.369797,26.175182 224.353699,30.748068 222.480560,35.749046 
	C221.728470,37.756973 223.418945,40.724518 224.119522,43.221096 
	C225.117752,46.778316 221.185333,52.108162 217.510315,52.057209 
	C217.017975,52.050388 216.491058,52.027981 216.041794,51.853775 
	C213.942001,51.039570 208.459610,39.904175 209.278488,37.704739 
	C210.423050,34.630470 212.043030,31.731670 213.160080,28.649252 
	C213.842896,26.765045 213.839355,24.643959 214.362564,22.687698 
	C215.608429,18.029423 225.830475,13.238774 230.928635,15.640221 
	C230.624222,18.088154 230.275620,19.759293 229.927032,21.430431 
z"/>
<path fill="#3B1C11" opacity="1.000000" stroke="none" 
	d="
M262.335876,204.510345 
	C261.485962,207.502136 261.010773,210.668167 259.715881,213.453049 
	C255.837540,221.793976 251.638687,229.985855 247.590698,238.619751 
	C245.942337,238.335251 244.268188,237.666946 242.238144,236.965393 
	C246.006729,236.339218 248.178970,233.593292 249.665298,230.001175 
	C253.306793,221.200516 256.998810,212.420746 261.135254,203.504303 
	C261.845306,203.754135 262.090607,204.132248 262.335876,204.510345 
z"/>
<path fill="#2F170F" opacity="1.000000" stroke="none" 
	d="
M149.572296,58.988976 
	C150.823212,66.494690 151.782883,74.011948 152.742554,81.529205 
	C152.063217,81.621452 151.383881,81.713707 150.704544,81.805954 
	C149.799332,74.493279 148.894104,67.180603 148.052353,59.424038 
	C148.504227,58.986942 148.892639,58.993729 149.572296,58.988976 
z"/>
<path fill="#542716" opacity="1.000000" stroke="none" 
	d="
M161.882553,234.022858 
	C158.645294,231.073959 156.986160,227.320923 156.561096,223.109085 
	C157.049561,222.895981 157.538025,222.682877 158.026505,222.469788 
	C159.635025,225.747879 161.243561,229.025970 162.922623,232.655029 
	C162.672302,233.254135 162.351440,233.502274 161.882553,234.022858 
z"/>
<path fill="#E3DBDD" opacity="1.000000" stroke="none" 
	d="
M230.333496,21.251919 
	C230.275620,19.759293 230.624222,18.088154 231.052277,15.983595 
	C233.461121,16.837530 235.790482,18.124886 238.119858,19.412243 
	C237.997360,19.965961 237.874878,20.519682 237.752396,21.073402 
	C235.414917,21.073402 233.077438,21.073402 230.333496,21.251919 
z"/>
<path fill="#542716" opacity="1.000000" stroke="none" 
	d="
M160.019852,236.791870 
	C160.444687,236.322128 161.216446,235.944611 162.131256,235.270508 
	C161.638458,235.610641 161.002609,236.247375 160.019852,236.791870 
z"/>
<path fill="#060505" opacity="1.000000" stroke="none" 
	d="
M194.282166,71.951141 
	C202.792007,70.096024 208.569412,75.420967 213.484985,80.063103 
	C226.948120,92.777283 236.304138,108.163689 237.293503,127.253807 
	C237.650345,134.138916 235.933395,141.142654 230.911774,146.273849 
	C228.859146,148.371246 225.235275,149.473969 222.162689,149.931778 
	C211.509430,151.519089 204.912567,144.286591 200.178238,136.883224 
	C195.031387,128.834793 191.081512,119.536308 188.851913,110.244827 
	C186.672073,101.160751 185.490463,91.446709 187.880676,81.904655 
	C188.864029,77.978943 190.489578,74.523537 194.282166,71.951141 
M202.925232,81.537804 
	C201.651306,80.769989 200.460281,79.633713 199.083282,79.323868 
	C197.190720,78.897995 194.477432,78.291107 193.357574,79.235023 
	C191.977722,80.398087 191.749329,83.047073 191.272873,85.111488 
	C191.034470,86.144455 191.649796,87.389091 191.368423,88.395203 
	C189.010696,96.826080 197.081528,105.387947 203.871887,106.467064 
	C210.501816,107.520691 214.564621,104.379486 214.135925,98.714317 
	C213.573334,91.279625 210.091980,85.622505 202.925232,81.537804 
z"/>
<path fill="#060505" opacity="1.000000" stroke="none" 
	d="
M258.178772,115.660355 
	C252.442703,102.541092 246.940384,89.724396 246.132706,75.476074 
	C245.828659,70.112572 250.073242,63.343155 254.645294,63.086956 
	C262.553314,62.643826 269.155914,64.879936 274.795044,71.166313 
	C282.766632,80.052834 287.100739,90.800209 291.736084,101.356598 
	C294.620850,107.926331 296.187286,115.126633 297.873505,122.157120 
	C299.736053,129.922897 296.689606,136.269791 289.749390,139.938095 
	C286.723969,141.537201 283.775696,142.066101 280.425323,139.824280 
	C271.131134,133.605316 264.506897,125.051872 258.178772,115.660355 
M251.134125,72.981148 
	C250.129318,82.532623 256.028870,88.399132 262.691742,93.479004 
	C264.296997,94.702873 268.303650,94.832504 269.738098,93.663750 
	C271.261688,92.422394 271.863251,88.868202 271.399231,86.628098 
	C270.574493,82.646240 268.634888,78.896576 267.175049,75.044701 
	C264.619690,68.302101 254.410660,66.036804 251.134125,72.981148 
z"/>
<path fill="#0C0605" opacity="1.000000" stroke="none" 
	d="
M250.905518,162.270157 
	C249.244736,159.152618 247.583954,156.035095 245.923172,152.917557 
	C257.840729,157.271393 261.049866,157.664642 268.125641,144.314255 
	C270.349640,153.264679 271.823273,162.886856 265.089813,165.839508 
	C264.091919,162.954849 263.808685,160.175797 259.861542,160.267792 
	C256.658905,160.342422 255.082596,161.833679 254.985016,164.986221 
	C254.985016,164.986221 254.495880,165.003418 254.124237,164.800995 
	C253.524918,164.355774 253.245422,164.218597 252.914062,164.187057 
	C252.700119,163.907379 252.486160,163.627701 251.975830,163.003296 
	C251.502853,162.367004 251.244858,162.237534 250.905518,162.270157 
z"/>
<path fill="#FDADA5" opacity="1.000000" stroke="none" 
	d="
M313.977417,144.557587 
	C317.083649,143.428055 319.370636,144.763123 317.676697,147.229172 
	C314.085114,152.457901 309.543152,157.043686 305.251251,161.766174 
	C304.825043,162.235138 303.435974,161.828979 301.705902,161.828979 
	C302.696564,153.597168 310.090698,150.470490 313.977417,144.557587 
z"/>
<path fill="#FDADA5" opacity="1.000000" stroke="none" 
	d="
M165.399170,169.382996 
	C163.556854,170.894547 161.829697,173.458710 160.127121,170.382248 
	C159.501709,169.252151 160.562164,166.459045 161.713852,165.231705 
	C163.922882,162.877548 166.645508,160.945007 169.370468,159.167831 
	C170.331055,158.541351 171.921555,158.880707 173.224442,158.779083 
	C173.107330,160.266724 173.556168,162.267822 172.762985,163.142059 
	C170.697723,165.418365 168.087631,167.200348 165.399170,169.382996 
z"/>
<path fill="#FDADA5" opacity="1.000000" stroke="none" 
	d="
M187.251862,158.501495 
	C185.156631,162.422791 182.955048,166.067810 180.501282,169.534332 
	C180.302536,169.815094 178.375458,168.872482 177.251511,168.498352 
	C178.177139,165.835297 178.485840,162.619568 180.221436,160.682098 
	C181.638199,159.100586 183.223099,154.395737 187.251862,158.501495 
z"/>
<path fill="#672D1A" opacity="1.000000" stroke="none" 
	d="
M155.014420,217.997849 
	C151.683731,209.875549 152.857986,195.022217 157.162537,192.481430 
	C156.756546,198.692139 156.340027,204.817780 155.963821,210.945877 
	C155.822372,213.250107 155.774506,215.560104 155.334167,217.923981 
	C154.984360,217.980484 155.014420,217.997849 155.014420,217.997849 
z"/>
<path fill="#FDADA5" opacity="1.000000" stroke="none" 
	d="
M326.308868,154.231995 
	C324.826569,154.636719 323.354950,155.223236 322.427612,154.747940 
	C321.803772,154.428177 321.463531,152.400375 321.846893,151.498032 
	C322.800629,149.253159 324.005310,147.009933 325.592285,145.186447 
	C326.310638,144.361053 328.176636,144.534424 329.521973,144.254700 
	C329.699463,145.512558 330.359009,146.960480 329.953613,147.988495 
	C329.121521,150.098724 327.718964,151.984009 326.308868,154.231995 
z"/>
<path fill="#AC562A" opacity="1.000000" stroke="none" 
	d="
M255.127319,165.293152 
	C255.082596,161.833679 256.658905,160.342422 259.861542,160.267792 
	C263.808685,160.175797 264.091919,162.954849 264.770935,166.010788 
	C261.678070,167.730209 258.313690,168.978928 255.127319,165.293152 
z"/>
<path fill="#FDADA5" opacity="1.000000" stroke="none" 
	d="
M302.737610,151.892944 
	C299.409973,151.097458 299.097351,148.791794 300.749481,147.082092 
	C302.464569,145.307251 305.123077,144.444107 307.369019,143.182251 
	C307.646118,144.546616 308.609650,146.382446 308.061737,147.180206 
	C306.803650,149.012009 304.809113,150.337997 302.737610,151.892944 
z"/>
<path fill="#FDACA4" opacity="1.000000" stroke="none" 
	d="
M153.729980,160.800659 
	C155.072021,159.782578 156.081680,158.843628 157.275757,158.388046 
	C158.056015,158.090332 159.823761,158.305801 159.904709,158.616058 
	C160.223709,159.838806 160.598740,161.810013 159.957092,162.377518 
	C158.017288,164.093277 155.612091,165.282867 153.388275,166.677521 
	C153.192383,165.254547 152.932999,163.835724 152.839615,162.406052 
	C152.811874,161.981354 153.250778,161.526184 153.729980,160.800659 
z"/>
<path fill="#512515" opacity="1.000000" stroke="none" 
	d="
M262.567505,204.220215 
	C262.090607,204.132248 261.845306,203.754135 261.314728,203.195923 
	C262.133698,198.321548 263.237946,193.627274 264.342194,188.932999 
	C265.093445,189.100021 265.844666,189.267059 266.595886,189.434082 
	C265.810394,194.349106 264.700073,199.207947 262.567505,204.220215 
z"/>
<path fill="#632F16" opacity="1.000000" stroke="none" 
	d="
M282.524750,64.047310 
	C282.427094,61.215698 282.427094,58.769276 282.427094,56.322849 
	C283.032623,56.278160 283.638184,56.233471 284.243713,56.188778 
	C284.664917,59.216476 285.136902,62.239025 285.445343,65.278168 
	C285.485443,65.673431 284.682922,66.154213 284.270691,66.595390 
	C283.721252,65.874428 283.171844,65.153458 282.524750,64.047310 
z"/>
<path fill="#AC562A" opacity="1.000000" stroke="none" 
	d="
M253.004547,164.425140 
	C253.245422,164.218597 253.524918,164.355774 253.879517,164.799713 
	C253.702637,164.888321 253.398849,164.775772 253.004547,164.425140 
z"/>
<path fill="#AC562A" opacity="1.000000" stroke="none" 
	d="
M250.976761,162.479156 
	C251.244858,162.237534 251.502853,162.367004 251.740494,162.877472 
	C251.481934,163.086563 251.230774,162.950485 250.976761,162.479156 
z"/>
<path fill="#672D1A" opacity="1.000000" stroke="none" 
	d="
M154.973145,217.965866 
	C154.909241,218.023941 154.856537,218.096649 154.909134,218.083588 
	C155.014420,217.997849 154.984360,217.980484 154.973145,217.965866 
z"/>
<path fill="#F5F4F5" opacity="1.000000" stroke="none" 
	d="
M203.238022,81.731934 
	C210.091980,85.622505 213.573334,91.279625 214.135925,98.714317 
	C214.564621,104.379486 210.501816,107.520691 203.871887,106.467064 
	C197.081528,105.387947 189.010696,96.826080 191.368423,88.395203 
	C191.649796,87.389091 191.034470,86.144455 191.272873,85.111488 
	C191.749329,83.047073 191.977722,80.398087 193.357574,79.235023 
	C194.477432,78.291107 197.190720,78.897995 199.083282,79.323868 
	C200.460281,79.633713 201.651306,80.769989 203.238022,81.731934 
z"/>
<path fill="#F4F3F5" opacity="1.000000" stroke="none" 
	d="
M251.184784,72.567963 
	C254.410660,66.036804 264.619690,68.302101 267.175049,75.044701 
	C268.634888,78.896576 270.574493,82.646240 271.399231,86.628098 
	C271.863251,88.868202 271.261688,92.422394 269.738098,93.663750 
	C268.303650,94.832504 264.296997,94.702873 262.691742,93.479004 
	C256.028870,88.399132 250.129318,82.532623 251.184784,72.567963 
z"/>
</svg>